<?xml version="1.0" encoding="utf-8"?><svg viewBox="0 0 50 50" xmlns="http://www.w3.org/2000/svg" xmlns:xlink="http://www.w3.org/1999/xlink"><style>:root>svg{display:none}:root>svg:target{display:block}</style><svg fill="#fff" viewBox="0 0 24 24" id="arrow" xmlns="http://www.w3.org/2000/svg"><path d="M12 17.414 3.293 8.707l1.414-1.414L12 14.586l7.293-7.293 1.414 1.414L12 17.414z"/></svg><svg viewBox="0 0 256 256" id="telegram" xmlns="http://www.w3.org/2000/svg"><path d="M46.137 6.552c-.75-.636-1.928-.727-3.146-.238h-.002c-1.281.514-36.261 15.518-37.685 16.131-.259.09-2.521.934-2.288 2.814.208 1.695 2.026 2.397 2.248 2.478l8.893 3.045c.59 1.964 2.765 9.21 3.246 10.758.3.965.789 2.233 1.646 2.494.752.29 1.5.025 1.984-.355l5.437-5.043 8.777 6.845.209.125c.596.264 1.167.396 1.712.396.421 0 .825-.079 1.211-.237 1.315-.54 1.841-1.793 1.896-1.935l6.556-34.077c.4-1.82-.156-2.746-.694-3.201zM22 32l-3 8-3-10 23-17z" transform="scale(5.12)" fill="#fff" stroke-miterlimit="10" font-family="none" font-weight="none" font-size="none" text-anchor="none" style="mix-blend-mode:normal"/></svg><svg viewBox="0 0 256 256" id="vk" xmlns="http://www.w3.org/2000/svg"><path d="M45.763 35.202c-1.797-3.234-6.426-7.12-8.337-8.811a1.242 1.242 0 0 1-.103-1.776c3.647-3.919 6.564-8.422 7.568-11.143.443-1.202-.474-2.472-1.766-2.472h-3.753c-1.237 0-1.961.444-2.306 1.151-3.031 6.211-5.631 8.899-7.451 10.47-1.019.88-2.608.151-2.608-1.188v-8.28a2.084 2.084 0 0 0-2.095-2.075L18.056 11c-.863 0-1.356.977-.838 1.662l1.132 1.625c.426.563.656 1.248.656 1.951L19 23.556c0 1.273-1.543 1.895-2.459 1.003-3.099-3.018-5.788-9.181-6.756-12.128A2.087 2.087 0 0 0 7.8 11l-3.697-.009c-1.387 0-2.401 1.315-2.024 2.639C5.457 25.487 12.388 36.767 24.74 37.99c1.217.12 2.267-.86 2.267-2.073v-3.846c0-1.103.865-2.051 1.977-2.079l.117-.001c3.267 0 6.926 4.755 8.206 6.979a2.07 2.07 0 0 0 1.8 1.03h4.973c1.451 0 2.382-1.539 1.683-2.798z" transform="scale(5.33333)" fill="#fff" stroke-miterlimit="10" font-family="none" font-weight="none" font-size="none" text-anchor="none" style="mix-blend-mode:normal"/></svg></svg>